<?xml version="1.0" encoding="UTF-8" standalone="no"?>
<!DOCTYPE svg PUBLIC "-//W3C//DTD SVG 1.1//EN"
 "http://www.w3.org/Graphics/SVG/1.1/DTD/svg11.dtd">
<!-- Generated by graphviz version 2.43.0 (0)
 -->
<!-- Title: trie Pages: 1 -->
<svg width="286pt" height="170pt"
 viewBox="0.00 0.00 285.82 169.94" xmlns="http://www.w3.org/2000/svg" xmlns:xlink="http://www.w3.org/1999/xlink">
<g id="graph0" class="graph" transform="scale(1 1) rotate(0) translate(4 165.94)">
<title>trie</title>
<polygon fill="white" stroke="transparent" points="-4,4 -4,-165.94 281.82,-165.94 281.82,4 -4,4"/>
<!-- 1 -->
<g id="node1" class="node">
<title>1</title>
<ellipse fill="none" stroke="black" cx="80.97" cy="-73.97" rx="16.95" ry="16.95"/>
<ellipse fill="none" stroke="black" cx="80.97" cy="-73.97" rx="20.94" ry="20.94"/>
<text text-anchor="middle" x="80.97" y="-70.27" font-family="sans-serif" font-size="14.00">0</text>
</g>
<!-- 2 -->
<g id="node7" class="node">
<title>2</title>
<ellipse fill="none" stroke="black" cx="168.91" cy="-80.97" rx="7" ry="7"/>
</g>
<!-- 1&#45;&gt;2 -->
<g id="edge2" class="edge">
<title>1&#45;&gt;2</title>
<path fill="none" stroke="black" d="M101.9,-75.59C116.93,-76.82 137.3,-78.48 151.42,-79.63"/>
<polygon fill="black" stroke="black" points="151.31,-83.13 161.56,-80.45 151.87,-76.15 151.31,-83.13"/>
<text text-anchor="middle" x="124.94" y="-80.77" font-family="sans-serif" font-size="14.00">b</text>
</g>
<!-- 3 -->
<g id="node2" class="node">
<title>3</title>
<ellipse fill="none" stroke="black" cx="256.85" cy="-140.97" rx="16.95" ry="16.95"/>
<ellipse fill="none" stroke="black" cx="256.85" cy="-140.97" rx="20.94" ry="20.94"/>
<text text-anchor="middle" x="256.85" y="-137.27" font-family="sans-serif" font-size="14.00">1</text>
</g>
<!-- 4 -->
<g id="node3" class="node">
<title>4</title>
<ellipse fill="none" stroke="black" cx="256.85" cy="-80.97" rx="16.95" ry="16.95"/>
<ellipse fill="none" stroke="black" cx="256.85" cy="-80.97" rx="20.94" ry="20.94"/>
<text text-anchor="middle" x="256.85" y="-77.27" font-family="sans-serif" font-size="14.00">2</text>
</g>
<!-- 6 -->
<g id="node4" class="node">
<title>6</title>
<ellipse fill="none" stroke="black" cx="168.91" cy="-27.97" rx="16.95" ry="16.95"/>
<ellipse fill="none" stroke="black" cx="168.91" cy="-27.97" rx="20.94" ry="20.94"/>
<text text-anchor="middle" x="168.91" y="-24.27" font-family="sans-serif" font-size="14.00">3</text>
</g>
<!-- 7 -->
<g id="node5" class="node">
<title>7</title>
<ellipse fill="none" stroke="black" cx="256.85" cy="-20.97" rx="16.95" ry="16.95"/>
<ellipse fill="none" stroke="black" cx="256.85" cy="-20.97" rx="20.94" ry="20.94"/>
<text text-anchor="middle" x="256.85" y="-17.27" font-family="sans-serif" font-size="14.00">2</text>
</g>
<!-- 6&#45;&gt;7 -->
<g id="edge7" class="edge">
<title>6&#45;&gt;7</title>
<path fill="none" stroke="black" d="M189.84,-26.35C200.51,-25.48 213.85,-24.39 225.75,-23.42"/>
<polygon fill="black" stroke="black" points="226.05,-26.91 235.73,-22.61 225.48,-19.93 226.05,-26.91"/>
<text text-anchor="middle" x="212.88" y="-28.77" font-family="sans-serif" font-size="14.00">c</text>
</g>
<!-- 0 -->
<g id="node6" class="node">
<title>0</title>
<ellipse fill="none" stroke="black" cx="7" cy="-50.97" rx="7" ry="7"/>
</g>
<!-- 0&#45;&gt;1 -->
<g id="edge1" class="edge">
<title>0&#45;&gt;1</title>
<path fill="none" stroke="black" d="M14.14,-52.93C22.34,-55.55 37.45,-60.38 51.12,-64.75"/>
<polygon fill="black" stroke="black" points="50.11,-68.1 60.7,-67.81 52.24,-61.43 50.11,-68.1"/>
<text text-anchor="middle" x="37" y="-64.77" font-family="sans-serif" font-size="14.00">a</text>
</g>
<!-- 5 -->
<g id="node8" class="node">
<title>5</title>
<ellipse fill="none" stroke="black" cx="80.97" cy="-27.97" rx="7" ry="7"/>
</g>
<!-- 0&#45;&gt;5 -->
<g id="edge5" class="edge">
<title>0&#45;&gt;5</title>
<path fill="none" stroke="black" d="M13.41,-48.14C18.2,-45.72 25.43,-42.28 32,-39.97 42.48,-36.29 54.62,-33.27 64.07,-31.17"/>
<polygon fill="black" stroke="black" points="64.89,-34.58 73.96,-29.1 63.45,-27.73 64.89,-34.58"/>
<text text-anchor="middle" x="37" y="-43.77" font-family="sans-serif" font-size="14.00">b</text>
</g>
<!-- 2&#45;&gt;3 -->
<g id="edge3" class="edge">
<title>2&#45;&gt;3</title>
<path fill="none" stroke="black" d="M175.03,-84.54C185.8,-92.06 211.4,-109.93 230.92,-123.57"/>
<polygon fill="black" stroke="black" points="228.92,-126.44 239.13,-129.29 232.93,-120.7 228.92,-126.44"/>
<text text-anchor="middle" x="212.88" y="-115.77" font-family="sans-serif" font-size="14.00">c</text>
</g>
<!-- 2&#45;&gt;4 -->
<g id="edge4" class="edge">
<title>2&#45;&gt;4</title>
<path fill="none" stroke="black" d="M176.09,-80.97C186.39,-80.97 207.7,-80.97 225.7,-80.97"/>
<polygon fill="black" stroke="black" points="225.81,-84.47 235.81,-80.97 225.81,-77.47 225.81,-84.47"/>
<text text-anchor="middle" x="212.88" y="-84.77" font-family="sans-serif" font-size="14.00">d</text>
</g>
<!-- 5&#45;&gt;6 -->
<g id="edge6" class="edge">
<title>5&#45;&gt;6</title>
<path fill="none" stroke="black" d="M88.15,-27.97C98.45,-27.97 119.76,-27.97 137.76,-27.97"/>
<polygon fill="black" stroke="black" points="137.87,-31.47 147.87,-27.97 137.87,-24.47 137.87,-31.47"/>
<text text-anchor="middle" x="124.94" y="-31.77" font-family="sans-serif" font-size="14.00">c</text>
</g>
</g>
</svg>
