<?xml version="1.0" encoding="UTF-8" standalone="no"?>
<!DOCTYPE svg PUBLIC "-//W3C//DTD SVG 1.1//EN"
 "http://www.w3.org/Graphics/SVG/1.1/DTD/svg11.dtd">
<!-- Generated by graphviz version 2.43.0 (0)
 -->
<!-- Title: trie Pages: 1 -->
<svg width="226pt" height="110pt"
 viewBox="0.00 0.00 226.00 110.00" xmlns="http://www.w3.org/2000/svg" xmlns:xlink="http://www.w3.org/1999/xlink">
<g id="graph0" class="graph" transform="scale(1 1) rotate(0) translate(4 106)">
<title>trie</title>
<polygon fill="white" stroke="transparent" points="-4,4 -4,-106 222,-106 222,4 -4,4"/>
<!-- 1 -->
<g id="node1" class="node">
<title>1</title>
<ellipse fill="none" stroke="black" cx="71" cy="-51" rx="7" ry="7"/>
<ellipse fill="none" stroke="black" cx="71" cy="-51" rx="11" ry="11"/>
</g>
<!-- 2 -->
<g id="node7" class="node">
<title>2</title>
<ellipse fill="none" stroke="black" cx="139" cy="-51" rx="7" ry="7"/>
</g>
<!-- 1&#45;&gt;2 -->
<g id="edge2" class="edge">
<title>1&#45;&gt;2</title>
<path fill="none" stroke="black" d="M82.02,-51C92.52,-51 109.17,-51 121.58,-51"/>
<polygon fill="black" stroke="black" points="121.85,-54.5 131.85,-51 121.85,-47.5 121.85,-54.5"/>
<text text-anchor="middle" x="105" y="-54.8" font-family="sans-serif" font-size="14.00">b</text>
</g>
<!-- 3 -->
<g id="node2" class="node">
<title>3</title>
<ellipse fill="none" stroke="black" cx="207" cy="-91" rx="7" ry="7"/>
<ellipse fill="none" stroke="black" cx="207" cy="-91" rx="11" ry="11"/>
</g>
<!-- 4 -->
<g id="node3" class="node">
<title>4</title>
<ellipse fill="none" stroke="black" cx="207" cy="-51" rx="7" ry="7"/>
<ellipse fill="none" stroke="black" cx="207" cy="-51" rx="11" ry="11"/>
</g>
<!-- 6 -->
<g id="node4" class="node">
<title>6</title>
<ellipse fill="none" stroke="black" cx="139" cy="-12" rx="7" ry="7"/>
<ellipse fill="none" stroke="black" cx="139" cy="-12" rx="11" ry="11"/>
</g>
<!-- 7 -->
<g id="node5" class="node">
<title>7</title>
<ellipse fill="none" stroke="black" cx="207" cy="-11" rx="7" ry="7"/>
<ellipse fill="none" stroke="black" cx="207" cy="-11" rx="11" ry="11"/>
</g>
<!-- 6&#45;&gt;7 -->
<g id="edge7" class="edge">
<title>6&#45;&gt;7</title>
<path fill="none" stroke="black" d="M150.02,-11.85C159.42,-11.71 173.76,-11.49 185.58,-11.31"/>
<polygon fill="black" stroke="black" points="185.94,-14.8 195.88,-11.15 185.83,-7.81 185.94,-14.8"/>
<text text-anchor="middle" x="173" y="-14.8" font-family="sans-serif" font-size="14.00">c</text>
</g>
<!-- 0 -->
<g id="node6" class="node">
<title>0</title>
<ellipse fill="none" stroke="black" cx="7" cy="-32" rx="7" ry="7"/>
</g>
<!-- 0&#45;&gt;1 -->
<g id="edge1" class="edge">
<title>0&#45;&gt;1</title>
<path fill="none" stroke="black" d="M14.17,-33.89C22.59,-36.47 38.08,-41.22 50.6,-45.06"/>
<polygon fill="black" stroke="black" points="49.62,-48.42 60.21,-48 51.67,-41.72 49.62,-48.42"/>
<text text-anchor="middle" x="37" y="-45.8" font-family="sans-serif" font-size="14.00">a</text>
</g>
<!-- 5 -->
<g id="node8" class="node">
<title>5</title>
<ellipse fill="none" stroke="black" cx="71" cy="-13" rx="7" ry="7"/>
</g>
<!-- 0&#45;&gt;5 -->
<g id="edge5" class="edge">
<title>0&#45;&gt;5</title>
<path fill="none" stroke="black" d="M13.34,-28.78C18.08,-26.06 25.29,-22.25 32,-20 39.01,-17.65 47.02,-16.03 53.88,-14.94"/>
<polygon fill="black" stroke="black" points="54.5,-18.39 63.95,-13.58 53.57,-11.45 54.5,-18.39"/>
<text text-anchor="middle" x="37" y="-23.8" font-family="sans-serif" font-size="14.00">b</text>
</g>
<!-- 2&#45;&gt;3 -->
<g id="edge3" class="edge">
<title>2&#45;&gt;3</title>
<path fill="none" stroke="black" d="M145.53,-54.66C151.14,-58.36 160.11,-64.18 168,-69 174.49,-72.96 181.69,-77.18 188.07,-80.85"/>
<polygon fill="black" stroke="black" points="186.76,-84.13 197.18,-86.05 190.23,-78.05 186.76,-84.13"/>
<text text-anchor="middle" x="173" y="-77.8" font-family="sans-serif" font-size="14.00">c</text>
</g>
<!-- 2&#45;&gt;4 -->
<g id="edge4" class="edge">
<title>2&#45;&gt;4</title>
<path fill="none" stroke="black" d="M146.09,-51C154.97,-51 171.88,-51 185.47,-51"/>
<polygon fill="black" stroke="black" points="185.87,-54.5 195.87,-51 185.87,-47.5 185.87,-54.5"/>
<text text-anchor="middle" x="173" y="-54.8" font-family="sans-serif" font-size="14.00">d</text>
</g>
<!-- 5&#45;&gt;6 -->
<g id="edge6" class="edge">
<title>5&#45;&gt;6</title>
<path fill="none" stroke="black" d="M78.09,-12.91C86.97,-12.77 103.88,-12.52 117.47,-12.31"/>
<polygon fill="black" stroke="black" points="117.92,-15.8 127.87,-12.15 117.82,-8.81 117.92,-15.8"/>
<text text-anchor="middle" x="105" y="-15.8" font-family="sans-serif" font-size="14.00">c</text>
</g>
</g>
</svg>
